<?xml version="1.0" ?><svg fill="none" height="24" viewBox="0 0 24 24" width="24" xmlns="http://www.w3.org/2000/svg"><g id="Bycicle"><path clip-rule="evenodd" d="M6.61973 3.85355C6.97676 3.64353 7.43643 3.76271 7.64645 4.11973L12.6464 12.6197C12.8565 12.9768 12.7373 13.4364 12.3803 13.6464C12.0232 13.8565 11.5636 13.7373 11.3535 13.3803L6.35355 4.88026C6.14353 4.52324 6.26271 4.06356 6.61973 3.85355Z" fill="black" fill-rule="evenodd" id="Vector 7 (Stroke)"/><path clip-rule="evenodd" d="M5.25 4C5.25 3.58579 5.58579 3.25 6 3.25H9C9.41421 3.25 9.75 3.58579 9.75 4C9.75 4.41421 9.41421 4.75 9 4.75H6C5.58579 4.75 5.25 4.41421 5.25 4Z" fill="black" fill-rule="evenodd" id="Vector 8 (Stroke)"/><path clip-rule="evenodd" d="M8.32918 6.66459C8.45622 6.4105 8.71592 6.25 9 6.25H15.5C15.7599 6.25 16.0013 6.38459 16.138 6.6057C16.2746 6.82681 16.2871 7.10292 16.1708 7.33541L13.1708 13.3354C13.0438 13.5895 12.7841 13.75 12.5 13.75H6C5.74007 13.75 5.49867 13.6154 5.36201 13.3943C5.22536 13.1732 5.21293 12.8971 5.32918 12.6646L8.32918 6.66459ZM9.46353 7.75L7.21353 12.25H12.0365L14.2865 7.75H9.46353Z" fill="black" fill-rule="evenodd" id="Rectangle 5 (Stroke)"/><path clip-rule="evenodd" d="M5 10.75C3.20507 10.75 1.75 12.2051 1.75 14C1.75 15.7949 3.20507 17.25 5 17.25C6.79493 17.25 8.25 15.7949 8.25 14C8.25 12.2051 6.79493 10.75 5 10.75ZM0.25 14C0.25 11.3766 2.37665 9.25 5 9.25C7.62335 9.25 9.75 11.3766 9.75 14C9.75 16.6234 7.62335 18.75 5 18.75C2.37665 18.75 0.25 16.6234 0.25 14Z" fill="black" fill-rule="evenodd" id="Ellipse 6 (Stroke)"/><path clip-rule="evenodd" d="M19 10.75C17.2051 10.75 15.75 12.2051 15.75 14C15.75 15.7949 17.2051 17.25 19 17.25C20.7949 17.25 22.25 15.7949 22.25 14C22.25 12.2051 20.7949 10.75 19 10.75ZM14.25 14C14.25 11.3766 16.3766 9.25 19 9.25C21.6234 9.25 23.75 11.3766 23.75 14C23.75 16.6234 21.6234 18.75 19 18.75C16.3766 18.75 14.25 16.6234 14.25 14Z" fill="black" fill-rule="evenodd" id="Ellipse 7 (Stroke)"/><path clip-rule="evenodd" d="M14.3711 4.09131C14.5095 3.87844 14.7461 3.75 15 3.75H18C18.9665 3.75 19.75 4.5335 19.75 5.5C19.75 6.4665 18.9665 7.25 18 7.25H17.9092C17.495 7.25 17.1592 6.91421 17.1592 6.5C17.1592 6.08579 17.495 5.75 17.9092 5.75H18C18.1381 5.75 18.25 5.63807 18.25 5.5C18.25 5.36193 18.1381 5.25 18 5.25H16.1541L19.6854 13.1954C19.8536 13.5739 19.6831 14.0171 19.3046 14.1854C18.9261 14.3536 18.4829 14.1831 18.3146 13.8046L14.3146 4.8046C14.2115 4.5726 14.2328 4.30419 14.3711 4.09131Z" fill="black" fill-rule="evenodd" id="Vector 9 (Stroke)"/></g></svg>