<svg viewBox="0 0 72 72" xmlns="http://www.w3.org/2000/svg"><g style="fill:none;stroke:#000;stroke-linecap:round;stroke-linejoin:round;stroke-miterlimit:10;stroke-width:2"><path d="m17.9247 52.9753-6.625-.017s-1.0625 0-1.0625-1.25-.0625-3.5625-.0625-3.5625.6832-9.4798 2.625-10.625c1.625-.9583 46.544-.7036 53.1365-.5781.4728.009.8668.3478.9496.8133.2375 1.3354.6809 4.0966.7264 6.3273.0625 3.0625-.125 8-.125 8l-4.7646.7952"/><path d="m50.3414 53.0606-20.1667-.0541"/><path d="m11.2997 40.5-4.5625.3125-1.4375 3.3125"/><circle cx="56.4803" cy="53.2917" r="3"/><circle cx="23.9803" cy="53.2917" r="3"/><path d="m45.5493 43.0283 18.1254.1592s.0142-.0017.0403-.0069"/><path d="m13.2782 46.3109s4.0241-.9494 7.709-3.4984l19.5.1713"/><path d="m17.9247 52.9753-6.625-.017s-1.0625 0-1.0625-1.25-.0625-3.5625-.0625-3.5625.6832-9.4798 2.625-10.625c1.625-.9583 46.544-.7036 53.1365-.5781.4728.009.8668.3478.9496.8133.2375 1.3354.6809 4.0966.7264 6.3273.0625 3.0625-.125 8-.125 8"/><path d="m40.4872 40.3177h5.0625v12.6667h-5.0625z"/><path d="m11.1591 50.6562h2.5783l1.0723-1.3614"/></g></svg>