<?xml version="1.0" encoding="UTF-8" standalone="no"?>
<svg
   viewBox="0 0 512 512"
   version="1.1"
   id="svg6"
   sodipodi:docname="location.svg"
   inkscape:version="1.1.2 (0a00cf5339, 2022-02-04)"
   xmlns:inkscape="http://www.inkscape.org/namespaces/inkscape"
   xmlns:sodipodi="http://sodipodi.sourceforge.net/DTD/sodipodi-0.dtd"
   xmlns="http://www.w3.org/2000/svg"
   xmlns:svg="http://www.w3.org/2000/svg">
  <defs
     id="defs10" />
  <sodipodi:namedview
     id="namedview8"
     pagecolor="#ffffff"
     bordercolor="#666666"
     borderopacity="1.0"
     inkscape:pageshadow="2"
     inkscape:pageopacity="0.0"
     inkscape:pagecheckerboard="0"
     showgrid="false"
     inkscape:zoom="0.60076455"
     inkscape:cx="243.85593"
     inkscape:cy="375.35504"
     inkscape:window-width="1860"
     inkscape:window-height="1016"
     inkscape:window-x="60"
     inkscape:window-y="27"
     inkscape:window-maximized="1"
     inkscape:current-layer="svg6" />
  <g
     id="g829"
     transform="rotate(180,253.93204,251.54044)">
    <path
       fill="var(--ci-primary-color, currentColor)"
       d="m 253.924,127.592 a 64,64 0 1 0 64,64 64.073,64.073 0 0 0 -64,-64 z m 0,96 a 32,32 0 1 1 32,-32 32.037,32.037 0 0 1 -32,32 z"
       class="ci-primary"
       id="path2" />
    <path
       fill="var(--ci-primary-color, currentColor)"
       d="M 376.906,68.515 A 173.922,173.922 0 0 0 108.2,286.426 l 120.907,185.613 a 29.619,29.619 0 0 0 49.635,0 L 399.653,286.426 A 173.921,173.921 0 0 0 376.906,68.515 Z M 372.841,268.959 253.925,451.509 135.008,268.959 C 98.608,213.08 106.415,138.3 153.571,91.142 a 141.92,141.92 0 0 1 200.708,0 c 47.156,47.158 54.962,121.938 18.562,177.817 z"
       class="ci-primary"
       id="path4" />
  </g>
</svg>
