<?xml version="1.0" encoding="utf-8"?>
<!-- Generator: Adobe Illustrator 21.0.0, SVG Export Plug-In . SVG Version: 6.00 Build 0)  -->
<svg version="1.1" id="Calque_1" xmlns="http://www.w3.org/2000/svg" xmlns:xlink="http://www.w3.org/1999/xlink" x="0px" y="0px"
	 viewBox="0 0 283.5 283.5" style="enable-background:new 0 0 283.5 283.5;" xml:space="preserve">
<style type="text/css">
	.st0{fill:#FFFFFF;}
	.st1{fill:#044954;}
	.st2{fill:#93014A;}
	.st3{fill:#072951;}
	.st4{fill:#FEA621;}
	.st5{fill:#072951;stroke:#072951;stroke-width:0.1531;stroke-miterlimit:10;}
</style>
<rect x="0" y="0.1" class="st0" width="283.4" height="283.3"/>
<g>
	<path class="st1" d="M141,146.6c-0.3,0.1-0.7,0.1-1.1,0c-1.9-0.2-3.3-2-3-3.9c1.2-9.7-1.3-19.2-7.3-27c-6-7.7-14.6-12.7-24.2-13.9
		c-20-2.6-38.3,11.6-40.9,31.5c-0.2,1.9-2,3.3-3.9,3c-1.9-0.2-3.3-2-3-3.9c1.5-11.5,7.4-21.8,16.6-28.9c9.2-7.1,20.6-10.2,32.1-8.7
		c23.8,3.1,40.7,24.9,37.6,48.7C143.7,145.1,142.5,146.3,141,146.6z"/>
	<path class="st2" d="M79.8,203.4c-17.4-5.6-31.6-17.5-39.9-33.7c-8.4-16.2-10-34.8-4.5-52.3c5.5-17.5,17.5-31.7,33.8-40.1
		c2-1.1,4.6-0.3,5.6,1.8c1.1,2,0.3,4.6-1.8,5.6c-14.3,7.4-24.8,19.9-29.7,35.3c-4.9,15.4-3.5,31.7,3.9,45.9
		c7.4,14.3,19.9,24.8,35.3,29.7c15.4,4.9,31.7,3.5,45.9-3.9c2-1.1,4.6-0.3,5.6,1.8c1.1,2,0.3,4.6-1.8,5.6
		c-16.2,8.4-34.8,10-52.3,4.5C79.9,203.4,79.9,203.4,79.8,203.4z"/>
	<path class="st3" d="M82.3,195.4c-31.6-10.1-49.1-44.1-39-75.7s44.1-49.1,75.7-39c2.2,0.7,3.4,3,2.7,5.2c-0.7,2.2-3,3.4-5.2,2.7
		C89.3,79.9,60,95,51.3,122.2s6.3,56.5,33.6,65.2c2.2,0.7,3.4,3,2.7,5.2C86.8,194.9,84.5,196.1,82.3,195.4z"/>
	<path class="st4" d="M54.6,158.4c-1.2-0.4-2.2-1.3-2.6-2.5c-4.8-13-4.2-27.1,1.7-39.7c5.8-12.6,16.2-22.1,29.2-26.9
		c13-4.8,27.1-4.2,39.7,1.7c12.6,5.8,22.1,16.2,26.9,29.2c0.8,2.2-0.3,4.6-2.5,5.4c-2.2,0.8-4.6-0.3-5.4-2.5
		c-4-10.9-12-19.6-22.6-24.5c-10.5-4.9-22.4-5.4-33.3-1.4c-22.5,8.2-34.2,33.3-25.9,55.9c0.8,2.2-0.3,4.6-2.5,5.4
		C56.4,158.7,55.5,158.7,54.6,158.4z"/>
	<g>
		<g>
			<g>
				<path class="st5" d="M87.6,170.6l-1.8,0c-0.2,0-0.4-0.1-0.4-0.3c0-0.2,0.2-0.3,0.4-0.3l1.8,0l0-2.8c0-0.2,0.2-0.3,0.4-0.3
					s0.4,0.2,0.4,0.3l0,2.8h1.8c0.2,0,0.4,0.1,0.4,0.3c0,0.2-0.2,0.3-0.4,0.3h-1.8l0,2.8c0,0.2-0.2,0.3-0.4,0.3s-0.4-0.1-0.4-0.3
					L87.6,170.6z"/>
				<path class="st5" d="M95.3,171.5c0,1.6-0.9,2.3-2.2,2.3c-1.3,0-2.2-0.8-2.2-2.3c0-1.6,0.9-2.3,2.2-2.3
					C94.4,169.2,95.3,169.9,95.3,171.5z M94.5,171.5c0-1.2-0.5-1.7-1.4-1.7c-0.9,0-1.4,0.5-1.4,1.7c0,1.2,0.5,1.7,1.4,1.7
					C94,173.2,94.5,172.7,94.5,171.5z"/>
				<path class="st5" d="M96.9,172.4c0,0.4,0.2,0.7,0.8,0.7l2.6,0c0.2,0,0.4,0.1,0.4,0.3s-0.2,0.3-0.4,0.3l-2.9,0
					c-0.7,0-1.3-0.5-1.3-1.2l0-4.4c0-0.6,0.6-1.2,1.3-1.2l2.8,0c0.2,0,0.4,0.1,0.4,0.3s-0.2,0.3-0.4,0.3l-2.5,0
					c-0.6,0-0.8,0.3-0.8,0.7L96.9,172.4z"/>
				<path class="st5" d="M101.1,170.3c0-2.4,1.4-3.5,3.6-3.5c2.2,0,3.6,1.1,3.6,3.5c0,2.4-1.4,3.5-3.6,3.5
					C102.5,173.8,101.1,172.7,101.1,170.3z M101.9,170.3c0,2,1,2.9,2.8,2.9c1.8,0,2.8-0.9,2.8-2.9c0-2-1-2.9-2.8-2.9
					C103,167.4,101.9,168.3,101.9,170.3z M104.2,170.3c0-0.3,0.2-0.5,0.5-0.5s0.5,0.1,0.5,0.5c0,0.3-0.2,0.4-0.5,0.4
					S104.2,170.6,104.2,170.3z"/>
				<path class="st5" d="M108.8,170.3c0-2.4,1.4-3.5,3.6-3.5c2.2,0,3.6,1.1,3.6,3.5c0,2.4-1.4,3.5-3.6,3.5
					C110.1,173.8,108.8,172.7,108.8,170.3z M109.6,170.3c0,2,1,2.9,2.8,2.9s2.8-0.9,2.8-2.9c0-2-1-2.9-2.8-2.9
					S109.6,168.3,109.6,170.3z M111.9,170.3c0-0.3,0.2-0.5,0.5-0.5s0.5,0.1,0.5,0.5c0,0.3-0.2,0.4-0.5,0.4S111.9,170.6,111.9,170.3z
					"/>
				<path class="st5" d="M121.7,168.3c0,1-1.1,1.5-2.6,1.5c-1.5,0-2.6-0.5-2.6-1.5c0-1,1.1-1.5,2.6-1.5
					C120.6,166.8,121.7,167.3,121.7,168.3z M121.7,172.3c0,1-1.1,1.5-2.6,1.5c-1.5,0-2.6-0.5-2.6-1.5c0-1,1.1-1.5,2.6-1.5
					C120.6,170.8,121.7,171.3,121.7,172.3z M120.8,168.3c0-0.6-0.7-0.9-1.8-0.9s-1.8,0.3-1.8,0.9c0,0.6,0.7,0.9,1.8,0.9
					S120.8,168.9,120.8,168.3z M120.8,172.3c0-0.6-0.7-0.9-1.8-0.9s-1.8,0.3-1.8,0.9c0,0.6,0.7,0.9,1.8,0.9S120.8,172.9,120.8,172.3
					z"/>
				<path class="st5" d="M122.1,170.3c0-2.4,1.4-3.5,3.6-3.5s3.6,1.1,3.6,3.5c0,2.4-1.4,3.5-3.6,3.5S122.1,172.7,122.1,170.3z
					 M122.9,170.3c0,2,1,2.9,2.8,2.9s2.8-0.9,2.8-2.9c0-2-1-2.9-2.8-2.9S122.9,168.3,122.9,170.3z"/>
				<path class="st5" d="M131.8,170.6h-1.8c-0.2,0-0.4-0.1-0.4-0.3c0-0.2,0.2-0.3,0.4-0.3h1.8l0-2.8c0-0.2,0.2-0.3,0.4-0.3
					s0.4,0.2,0.4,0.3l0,2.8h1.8c0.2,0,0.4,0.1,0.4,0.3c0,0.2-0.2,0.3-0.4,0.3h-1.8l0,2.8c0,0.2-0.2,0.3-0.4,0.3s-0.4-0.1-0.4-0.3
					L131.8,170.6z"/>
				<path class="st5" d="M139.3,173.4c0,0.2-0.2,0.3-0.4,0.3s-0.4-0.2-0.4-0.3l0-6.2c0-0.2,0.2-0.3,0.4-0.3s0.4,0.2,0.4,0.3
					L139.3,173.4z"/>
				<path class="st5" d="M143.2,170.3c0-2.4,1.4-3.5,3.6-3.5c2.2,0,3.6,1.1,3.6,3.5c0,2.4-1.4,3.5-3.6,3.5
					C144.6,173.8,143.2,172.6,143.2,170.3z M144,170.3c0,2,1,2.9,2.8,2.9c1.8,0,2.8-0.9,2.8-2.9c0-2-1-2.9-2.8-2.9
					C145,167.4,144,168.3,144,170.3z"/>
				<path class="st5" d="M150.9,170.3c0-2.4,1.4-3.5,3.6-3.5c2.2,0,3.6,1.1,3.6,3.5c0,2.4-1.4,3.5-3.6,3.5
					C152.2,173.8,150.9,172.6,150.9,170.3z M151.7,170.3c0,2,1,2.9,2.8,2.9c1.8,0,2.8-0.9,2.8-2.9c0-2-1-2.9-2.8-2.9
					C152.7,167.4,151.7,168.3,151.7,170.3z"/>
				<path class="st5" d="M158.5,170.3c0-2.4,1.4-3.5,3.6-3.5c2.2,0,3.6,1.1,3.6,3.5c0,2.4-1.4,3.5-3.6,3.5
					C159.9,173.8,158.5,172.6,158.5,170.3z M159.3,170h5.6c-0.1-1.8-1.1-2.6-2.8-2.6C160.4,167.4,159.4,168.2,159.3,170z
					 M164.9,170.6h-5.6c0.1,1.8,1.1,2.6,2.8,2.6C163.8,173.2,164.8,172.3,164.9,170.6z"/>
				<path class="st5" d="M170.6,171.5c0,1.6-0.9,2.3-2.2,2.3c-1.3,0-2.2-0.8-2.2-2.3c0-1.6,0.9-2.3,2.2-2.3
					C169.7,169.2,170.6,169.9,170.6,171.5z M169.8,171.5c0-1.2-0.5-1.7-1.4-1.7s-1.4,0.5-1.4,1.7c0,1.2,0.5,1.7,1.4,1.7
					S169.8,172.7,169.8,171.5z"/>
				<path class="st5" d="M174.5,171.7c-0.2,0-0.4-0.2-0.4-0.3v-0.8h-1.9v1.8c0,0.4,0.2,0.7,0.8,0.7h2.6c0.2,0,0.4,0.1,0.4,0.3
					s-0.2,0.3-0.4,0.3h-2.9c-0.7,0-1.3-0.5-1.3-1.2l0-4.4c0-0.6,0.6-1.2,1.3-1.2h2.8c0.2,0,0.4,0.1,0.4,0.3s-0.2,0.3-0.4,0.3h-2.5
					c-0.6,0-0.8,0.3-0.8,0.7v1.8h1.9v-0.8c0-0.2,0.2-0.3,0.4-0.3c0.2,0,0.4,0.2,0.4,0.3v0.8h0.3c0.2,0,0.4,0.1,0.4,0.3
					s-0.2,0.3-0.4,0.3h-0.3v0.8C174.9,171.6,174.8,171.7,174.5,171.7z"/>
				<path class="st5" d="M181.5,170.6h-1.8c-0.2,0-0.4-0.1-0.4-0.3c0-0.2,0.2-0.3,0.4-0.3h1.8l0-2.8c0-0.2,0.2-0.3,0.4-0.3
					s0.4,0.2,0.4,0.3l0,2.8l1.8,0c0.2,0,0.4,0.1,0.4,0.3c0,0.2-0.2,0.3-0.4,0.3l-1.8,0v2.8c0,0.2-0.2,0.3-0.4,0.3s-0.4-0.1-0.4-0.3
					V170.6z"/>
				<path class="st5" d="M189.2,171.5c0,1.6-0.9,2.3-2.2,2.3c-1.3,0-2.2-0.8-2.2-2.3c0-1.6,0.9-2.3,2.2-2.3
					C188.3,169.2,189.2,169.9,189.2,171.5z M188.4,171.5c0-1.2-0.5-1.7-1.4-1.7s-1.4,0.5-1.4,1.7c0,1.2,0.5,1.7,1.4,1.7
					S188.4,172.7,188.4,171.5z"/>
				<path class="st5" d="M189.6,170.3c0-2.4,1.4-3.5,3.6-3.5c2.2,0,3.6,1.1,3.6,3.5c0,2.4-1.4,3.5-3.6,3.5
					C191,173.8,189.6,172.6,189.6,170.3z M190.4,170.3c0,2,1,2.9,2.8,2.9c1.8,0,2.8-0.9,2.8-2.9c0-2-1-2.9-2.8-2.9
					C191.5,167.4,190.4,168.3,190.4,170.3z M192.7,170.3c0-0.3,0.2-0.5,0.5-0.5c0.3,0,0.5,0.1,0.5,0.5c0,0.3-0.2,0.4-0.5,0.4
					C192.9,170.7,192.7,170.6,192.7,170.3z"/>
				<path class="st5" d="M197.5,168c0-0.6,0.6-1.2,1.3-1.2h2c0.7,0,1.3,0.5,1.3,1.2c0,0.3-0.1,0.6-0.3,1l-1.2,2.2l1.4,1.9
					c0,0.1,0.1,0.1,0.1,0.2c0,0.2-0.2,0.3-0.4,0.3c-0.1,0-0.3,0-0.3-0.1l-1.5-2.2h-0.1l-1.5,2.2c-0.1,0.1-0.2,0.1-0.3,0.1
					c-0.2,0-0.4-0.1-0.4-0.3c0-0.1,0-0.1,0.1-0.2l1.4-1.9l-1.2-2.2C197.6,168.7,197.5,168.3,197.5,168z M200.6,167.5h-1.4
					c-0.6,0-0.8,0.3-0.8,0.7c0,0.1,0.1,0.4,0.2,0.6c0.4,0.9,1.1,2.1,1.3,2.4h0.1c0.2-0.2,0.9-1.5,1.3-2.4c0.1-0.2,0.2-0.4,0.2-0.6
					C201.4,167.8,201.2,167.5,200.6,167.5z"/>
				<path class="st5" d="M207.3,171.5c0,1.6-0.9,2.3-2.2,2.3c-1.3,0-2.2-0.8-2.2-2.3c0-1.6,0.9-2.3,2.2-2.3
					C206.4,169.2,207.3,169.9,207.3,171.5z M206.5,171.5c0-1.2-0.5-1.7-1.4-1.7s-1.4,0.5-1.4,1.7c0,1.2,0.5,1.7,1.4,1.7
					S206.5,172.7,206.5,171.5z"/>
				<path class="st5" d="M212,173.4c0,0.2-0.2,0.3-0.4,0.3s-0.4-0.2-0.4-0.3l0-6.2c0-0.2,0.2-0.3,0.4-0.3s0.4,0.2,0.4,0.3L212,173.4
					z"/>
				<path class="st5" d="M217.2,172.4c0,0.4,0.2,0.7,0.8,0.7l2.2,0c0.6,0,0.8-0.3,0.8-0.7l0-5.2c0-0.2,0.2-0.3,0.4-0.3
					c0.2,0,0.4,0.2,0.4,0.3l0,5.3c0,0.7-0.6,1.2-1.3,1.2l-2.7,0c-0.7,0-1.3-0.5-1.3-1.2l0-5.3c0-0.2,0.2-0.3,0.4-0.3
					s0.4,0.2,0.4,0.3L217.2,172.4z"/>
				<path class="st5" d="M227.1,171.5c0,1.6-0.9,2.3-2.2,2.3c-1.3,0-2.2-0.8-2.2-2.3c0-1.6,0.9-2.3,2.2-2.3
					C226.2,169.2,227.1,169.9,227.1,171.5z M226.3,171.5c0-1.2-0.5-1.7-1.4-1.7s-1.4,0.5-1.4,1.7c0,1.2,0.5,1.7,1.4,1.7
					S226.3,172.7,226.3,171.5z"/>
				<path class="st5" d="M227.5,170.3c0-2.4,1.4-3.5,3.6-3.5c2.2,0,3.6,1.1,3.6,3.5c0,2.4-1.4,3.5-3.6,3.5
					C228.9,173.8,227.5,172.6,227.5,170.3z M228.3,170.3c0,2,1,2.9,2.8,2.9c1.8,0,2.8-0.9,2.8-2.9c0-2-1-2.9-2.8-2.9
					C229.3,167.4,228.3,168.3,228.3,170.3z M230.6,170.3c0-0.3,0.2-0.5,0.5-0.5c0.3,0,0.5,0.1,0.5,0.5c0,0.3-0.2,0.4-0.5,0.4
					C230.8,170.7,230.6,170.6,230.6,170.3z"/>
				<path class="st5" d="M235.2,170.3c0-2.4,1.4-3.5,3.6-3.5c2.2,0,3.6,1.1,3.6,3.5c0,2.4-1.4,3.5-3.6,3.5
					C236.5,173.8,235.2,172.6,235.2,170.3z M236,170.3c0,2,1,2.9,2.8,2.9c1.8,0,2.8-0.9,2.8-2.9c0-2-1-2.9-2.8-2.9
					C237,167.4,236,168.3,236,170.3z M238.3,170.3c0-0.3,0.2-0.5,0.5-0.5c0.3,0,0.5,0.1,0.5,0.5c0,0.3-0.2,0.4-0.5,0.4
					C238.5,170.7,238.3,170.6,238.3,170.3z"/>
				<path class="st5" d="M247.3,171.5c0,1.6-0.9,2.3-2.2,2.3c-1.3,0-2.2-0.8-2.2-2.3c0-1.6,0.9-2.3,2.2-2.3
					C246.4,169.2,247.3,169.9,247.3,171.5z M246.5,171.5c0-1.2-0.5-1.7-1.4-1.7c-0.9,0-1.4,0.5-1.4,1.7c0,1.2,0.5,1.7,1.4,1.7
					C246,173.2,246.5,172.7,246.5,171.5z"/>
				<path class="st5" d="M249.3,173.6c-0.1,0.1-0.2,0.1-0.3,0.1c-0.2,0-0.4-0.1-0.4-0.3c0-0.1,0-0.1,0.1-0.2l2-1.7l-0.6-0.7
					c-0.8-0.8-1.9-2-1.9-2.8c0-0.6,0.6-1.2,1.4-1.2l2.7,0c0.2,0,0.4,0.1,0.4,0.3s-0.2,0.3-0.4,0.3l-2.5,0c-0.5,0-0.9,0.2-0.9,0.5
					c0,0.9,2,2.7,2.2,2.9c0.2,0.2,0.5,0.5,0.5,0.6c0,0.1,0,0.1-0.1,0.2L249.3,173.6z"/>
			</g>
			<g>
				<path class="st3" d="M117.7,178h2.1c0.4,0,0.8,0,1.2,0.1c0.4,0,0.7,0.1,1,0.3c0.3,0.1,0.6,0.3,0.8,0.6c0.2,0.3,0.3,0.6,0.3,1.1
					c0,0.5-0.2,0.9-0.5,1.3c-0.4,0.3-0.9,0.5-1.5,0.6l2.3,3.3l-1.2,0l-2.2-3.2h-1.2l0,3.2h-1L117.7,178z M118.6,181.2h0.9
					c0.3,0,0.5,0,0.8,0c0.3,0,0.6-0.1,0.8-0.1c0.2-0.1,0.4-0.2,0.6-0.3c0.2-0.2,0.2-0.4,0.2-0.7c0-0.3-0.1-0.5-0.2-0.6
					s-0.3-0.3-0.5-0.4s-0.4-0.1-0.6-0.2c-0.2,0-0.5,0-0.7,0h-1.4V181.2z"/>
				<path class="st3" d="M123.9,181.1c0.3-0.2,0.6-0.4,1-0.5c0.4-0.1,0.8-0.2,1.2-0.2c0.8,0,1.4,0.2,1.7,0.5
					c0.4,0.3,0.5,0.8,0.5,1.5v2c0,0.1,0,0.3,0,0.4c0,0.1,0,0.3,0.1,0.4h-0.9c0-0.1,0-0.2-0.1-0.4c0-0.1,0-0.2,0-0.3h0
					c-0.2,0.2-0.4,0.4-0.7,0.6s-0.7,0.2-1.1,0.2c-0.3,0-0.5,0-0.8-0.1c-0.2-0.1-0.5-0.1-0.6-0.3c-0.2-0.1-0.3-0.3-0.4-0.4
					c-0.1-0.2-0.2-0.4-0.2-0.6c0-0.4,0.1-0.7,0.3-0.9s0.5-0.4,0.9-0.5c0.3-0.1,0.7-0.2,1.1-0.2c0.4,0,0.8,0,1.1,0h0.3v-0.1
					c0-0.3-0.1-0.6-0.4-0.8c-0.2-0.2-0.6-0.3-1-0.3c-0.3,0-0.6,0-0.9,0.1c-0.3,0.1-0.5,0.2-0.7,0.4L123.9,181.1z M126.5,182.9
					c-0.6,0-1,0.1-1.4,0.2s-0.5,0.4-0.5,0.7c0,0.3,0.1,0.5,0.3,0.6s0.5,0.2,0.9,0.2c0.3,0,0.5,0,0.7-0.1c0.2-0.1,0.4-0.2,0.5-0.3
					c0.1-0.1,0.2-0.3,0.3-0.4c0.1-0.2,0.1-0.4,0.1-0.5v-0.3H126.5z"/>
				<path class="st3" d="M129.4,177.5h0.9l0,3.6h0c0.2-0.3,0.5-0.5,0.9-0.6c0.3-0.1,0.7-0.2,1.1-0.2c0.4,0,0.8,0.1,1.2,0.2
					c0.4,0.1,0.6,0.3,0.9,0.5c0.2,0.2,0.4,0.5,0.6,0.8c0.1,0.3,0.2,0.6,0.2,1s-0.1,0.7-0.2,1s-0.3,0.6-0.6,0.8
					c-0.2,0.2-0.5,0.4-0.9,0.5c-0.3,0.1-0.7,0.2-1.1,0.2c-0.5,0-0.9-0.1-1.3-0.3c-0.4-0.2-0.6-0.4-0.8-0.7h0l0,0.8h-0.9L129.4,177.5
					z M130.3,182.8c0,0.2,0,0.5,0.1,0.7c0.1,0.2,0.2,0.4,0.4,0.6c0.2,0.2,0.4,0.3,0.6,0.4c0.2,0.1,0.5,0.1,0.8,0.1s0.6,0,0.8-0.1
					c0.2-0.1,0.4-0.2,0.6-0.4c0.2-0.2,0.3-0.3,0.4-0.6c0.1-0.2,0.1-0.4,0.1-0.7s0-0.5-0.1-0.7c-0.1-0.2-0.2-0.4-0.4-0.6
					c-0.2-0.2-0.4-0.3-0.6-0.4c-0.2-0.1-0.5-0.1-0.8-0.1s-0.6,0-0.8,0.1c-0.2,0.1-0.4,0.2-0.6,0.4c-0.2,0.2-0.3,0.3-0.4,0.6
					C130.3,182.3,130.3,182.6,130.3,182.8z"/>
				<path class="st3" d="M135.8,181c0.3-0.2,0.6-0.4,1-0.5c0.4-0.1,0.8-0.2,1.2-0.2c0.8,0,1.4,0.2,1.7,0.5c0.4,0.3,0.5,0.8,0.5,1.5
					v2c0,0.1,0,0.3,0,0.4c0,0.1,0,0.3,0.1,0.4h-0.9c0-0.1,0-0.2-0.1-0.4c0-0.1,0-0.2,0-0.3h0c-0.2,0.2-0.4,0.4-0.7,0.6
					s-0.7,0.2-1.1,0.2c-0.3,0-0.5,0-0.8-0.1c-0.2-0.1-0.5-0.1-0.6-0.3c-0.2-0.1-0.3-0.3-0.4-0.4c-0.1-0.2-0.2-0.4-0.2-0.6
					c0-0.4,0.1-0.7,0.3-0.9s0.5-0.4,0.9-0.5c0.3-0.1,0.7-0.2,1.1-0.2c0.4,0,0.8,0,1.1,0h0.3v-0.1c0-0.3-0.1-0.6-0.4-0.8
					c-0.2-0.2-0.6-0.3-1-0.3c-0.3,0-0.6,0-0.9,0.1c-0.3,0.1-0.5,0.2-0.7,0.4L135.8,181z M138.5,182.9c-0.6,0-1,0.1-1.4,0.2
					s-0.5,0.4-0.5,0.7c0,0.3,0.1,0.5,0.3,0.6s0.5,0.2,0.9,0.2c0.3,0,0.5,0,0.7-0.1c0.2-0.1,0.4-0.2,0.5-0.3c0.1-0.1,0.2-0.3,0.3-0.4
					c0.1-0.2,0.1-0.4,0.1-0.5v-0.3H138.5z"/>
				<path class="st3" d="M144.3,181.1h-1.6l0,2.4c0,0.2,0,0.3,0,0.4c0,0.1,0,0.2,0.1,0.3c0.1,0.1,0.1,0.2,0.2,0.2
					c0.1,0.1,0.3,0.1,0.5,0.1c0.1,0,0.3,0,0.4,0c0.1,0,0.3-0.1,0.4-0.1l0,0.7c-0.2,0.1-0.3,0.1-0.5,0.1c-0.2,0-0.4,0-0.5,0
					c-0.3,0-0.6,0-0.8-0.1c-0.2-0.1-0.3-0.2-0.5-0.3c-0.1-0.1-0.2-0.3-0.2-0.5c0-0.2-0.1-0.4-0.1-0.7l0-2.6l-1.2,0v-0.7l1.2,0v-1.3
					h0.9v1.3h1.6V181.1z"/>
				<path class="st3" d="M147.6,178h2.1c0.4,0,0.8,0,1.2,0.1s0.7,0.1,1,0.3c0.3,0.1,0.6,0.3,0.8,0.6c0.2,0.3,0.3,0.6,0.3,1.1
					c0,0.5-0.2,0.9-0.5,1.3c-0.4,0.3-0.9,0.5-1.5,0.6l2.3,3.3l-1.2,0l-2.2-3.2h-1.2v3.2h-1L147.6,178z M148.6,181.2h0.9
					c0.3,0,0.5,0,0.8,0c0.3,0,0.6-0.1,0.8-0.1c0.2-0.1,0.4-0.2,0.6-0.3c0.2-0.2,0.2-0.4,0.2-0.7c0-0.3-0.1-0.5-0.2-0.6
					c-0.1-0.2-0.3-0.3-0.5-0.4c-0.2-0.1-0.4-0.1-0.6-0.2c-0.2,0-0.5,0-0.7,0h-1.4L148.6,181.2z"/>
				<path class="st3" d="M158.8,184.3c-0.3,0.4-0.7,0.6-1.1,0.8c-0.4,0.1-0.8,0.2-1.3,0.2c-0.4,0-0.8-0.1-1.1-0.2
					c-0.3-0.1-0.6-0.3-0.9-0.5c-0.2-0.2-0.4-0.5-0.5-0.8c-0.1-0.3-0.2-0.6-0.2-1c0-0.4,0.1-0.7,0.2-1c0.1-0.3,0.3-0.6,0.6-0.8
					c0.2-0.2,0.5-0.4,0.9-0.5c0.3-0.1,0.7-0.2,1.1-0.2c0.4,0,0.7,0.1,1,0.2c0.3,0.1,0.6,0.3,0.8,0.5c0.2,0.2,0.4,0.5,0.5,0.8
					s0.2,0.7,0.2,1v0.3h-4.4c0,0.2,0.1,0.4,0.2,0.6c0.1,0.2,0.2,0.3,0.4,0.5s0.3,0.2,0.5,0.3c0.2,0.1,0.4,0.1,0.7,0.1
					c0.4,0,0.7-0.1,1-0.2c0.3-0.1,0.5-0.3,0.7-0.5L158.8,184.3z M158,182.4c0-0.4-0.2-0.7-0.5-1c-0.3-0.2-0.7-0.4-1.2-0.4
					c-0.5,0-0.9,0.1-1.2,0.4c-0.3,0.2-0.5,0.6-0.6,1H158z M156.7,177.9h1.3l-1.7,1.4h-0.8L156.7,177.9z"/>
				<path class="st3" d="M165.2,184.9c0,0.9-0.3,1.5-0.8,2s-1.2,0.7-2.2,0.7c-0.5,0-1-0.1-1.4-0.2c-0.4-0.1-0.8-0.4-1.2-0.7l0.6-0.6
					c0.3,0.3,0.6,0.5,0.9,0.6c0.3,0.1,0.7,0.2,1.1,0.2c0.4,0,0.7-0.1,1-0.2c0.3-0.1,0.5-0.2,0.6-0.4c0.2-0.2,0.3-0.4,0.3-0.6
					c0.1-0.2,0.1-0.5,0.1-0.7v-0.6h0c-0.2,0.3-0.5,0.5-0.8,0.7c-0.3,0.1-0.7,0.2-1.1,0.2c-0.4,0-0.8-0.1-1.2-0.2
					c-0.4-0.1-0.7-0.3-0.9-0.5s-0.5-0.5-0.6-0.8c-0.1-0.3-0.2-0.6-0.2-1c0-0.4,0.1-0.7,0.2-1s0.3-0.6,0.6-0.8
					c0.3-0.2,0.6-0.4,0.9-0.5c0.4-0.1,0.7-0.2,1.2-0.2c0.2,0,0.4,0,0.6,0.1c0.2,0,0.4,0.1,0.5,0.2c0.2,0.1,0.3,0.2,0.5,0.3
					s0.3,0.3,0.3,0.4h0v-0.8h0.9V184.9z M160.5,182.8c0,0.2,0,0.5,0.2,0.7c0.1,0.2,0.2,0.4,0.4,0.5c0.2,0.2,0.4,0.3,0.6,0.4
					c0.2,0.1,0.5,0.1,0.7,0.1c0.3,0,0.6,0,0.8-0.1c0.2-0.1,0.4-0.2,0.6-0.4c0.2-0.2,0.3-0.3,0.4-0.5c0.1-0.2,0.1-0.4,0.1-0.6
					c0-0.3,0-0.5-0.1-0.7c-0.1-0.2-0.2-0.4-0.4-0.5s-0.4-0.3-0.6-0.4s-0.5-0.1-0.8-0.1s-0.5,0-0.8,0.1c-0.2,0.1-0.4,0.2-0.6,0.4
					c-0.2,0.2-0.3,0.3-0.4,0.6C160.5,182.3,160.5,182.5,160.5,182.8z"/>
				<path class="st3" d="M166.2,178.6c0-0.2,0.1-0.3,0.2-0.4c0.1-0.1,0.3-0.2,0.5-0.2c0.2,0,0.3,0.1,0.5,0.2s0.2,0.2,0.2,0.4
					c0,0.2-0.1,0.3-0.2,0.4s-0.3,0.2-0.5,0.2c-0.2,0-0.4-0.1-0.5-0.2C166.2,178.9,166.2,178.8,166.2,178.6z M166.4,180.4h0.9v4.7
					h-0.9V180.4z"/>
				<path class="st3" d="M168.2,182.8c0-0.4,0.1-0.7,0.2-1s0.3-0.6,0.6-0.8c0.3-0.2,0.6-0.4,0.9-0.5c0.4-0.1,0.7-0.2,1.2-0.2
					c0.4,0,0.8,0.1,1.2,0.2c0.4,0.1,0.7,0.3,0.9,0.5c0.3,0.2,0.5,0.5,0.6,0.8s0.2,0.6,0.2,1s-0.1,0.7-0.2,1
					c-0.1,0.3-0.3,0.6-0.6,0.8c-0.3,0.2-0.6,0.4-0.9,0.5s-0.7,0.2-1.2,0.2c-0.4,0-0.8-0.1-1.2-0.2s-0.7-0.3-0.9-0.5
					c-0.3-0.2-0.5-0.5-0.6-0.8C168.3,183.5,168.2,183.2,168.2,182.8z M169.2,182.8c0,0.2,0,0.5,0.1,0.7c0.1,0.2,0.2,0.4,0.4,0.6
					c0.2,0.2,0.4,0.3,0.6,0.4c0.2,0.1,0.5,0.1,0.8,0.1c0.3,0,0.6,0,0.8-0.1c0.2-0.1,0.4-0.2,0.6-0.4c0.2-0.2,0.3-0.3,0.4-0.6
					c0.1-0.2,0.1-0.4,0.1-0.7s0-0.5-0.1-0.7c-0.1-0.2-0.2-0.4-0.4-0.6c-0.2-0.2-0.4-0.3-0.6-0.4c-0.2-0.1-0.5-0.1-0.8-0.1
					c-0.3,0-0.6,0-0.8,0.1c-0.2,0.1-0.4,0.2-0.6,0.4c-0.2,0.2-0.3,0.3-0.4,0.6C169.2,182.3,169.2,182.5,169.2,182.8z"/>
				<path class="st3" d="M174.8,181.6c0-0.2,0-0.4,0-0.6c0-0.2,0-0.4,0-0.5h0.9c0,0.1,0,0.3,0,0.4c0,0.1,0,0.3,0,0.4h0
					c0.1-0.1,0.1-0.2,0.3-0.3c0.1-0.1,0.2-0.2,0.4-0.3s0.3-0.2,0.5-0.2c0.2,0,0.4-0.1,0.6-0.1c0.4,0,0.7,0,0.9,0.1
					c0.3,0.1,0.5,0.2,0.6,0.4c0.2,0.2,0.3,0.4,0.4,0.6c0.1,0.2,0.1,0.5,0.1,0.8v2.9h-0.9v-2.8c0-0.4-0.1-0.7-0.3-0.9
					s-0.5-0.3-0.9-0.3c-0.3,0-0.5,0-0.8,0.1c-0.2,0.1-0.4,0.2-0.5,0.4s-0.2,0.4-0.3,0.6c-0.1,0.2-0.1,0.5-0.1,0.7v2.3h-0.9V181.6z"
					/>
				<path class="st3" d="M183.4,178l1.4,0l2.8,5.6h0l2.8-5.6h1.4l0,7.1h-1l0-6h0l-2.9,6h-0.6l-2.9-6h0l0,6l-1,0L183.4,178z"/>
				<path class="st3" d="M192.9,182.8c0-0.4,0.1-0.7,0.2-1s0.3-0.6,0.6-0.8c0.3-0.2,0.6-0.4,0.9-0.5c0.4-0.1,0.7-0.2,1.2-0.2
					c0.4,0,0.8,0.1,1.2,0.2c0.4,0.1,0.7,0.3,0.9,0.5c0.3,0.2,0.5,0.5,0.6,0.8s0.2,0.6,0.2,1s-0.1,0.7-0.2,1
					c-0.1,0.3-0.3,0.6-0.6,0.8c-0.3,0.2-0.6,0.4-0.9,0.5s-0.7,0.2-1.2,0.2c-0.4,0-0.8-0.1-1.2-0.2s-0.7-0.3-0.9-0.5
					c-0.3-0.2-0.5-0.5-0.6-0.8C193,183.5,192.9,183.2,192.9,182.8z M193.9,182.8c0,0.2,0,0.5,0.1,0.7c0.1,0.2,0.2,0.4,0.4,0.6
					c0.2,0.2,0.4,0.3,0.6,0.4c0.2,0.1,0.5,0.1,0.8,0.1c0.3,0,0.6,0,0.8-0.1c0.2-0.1,0.4-0.2,0.6-0.4c0.2-0.2,0.3-0.3,0.4-0.6
					c0.1-0.2,0.1-0.4,0.1-0.7s0-0.5-0.1-0.7c-0.1-0.2-0.2-0.4-0.4-0.6c-0.2-0.2-0.4-0.3-0.6-0.4c-0.2-0.1-0.5-0.1-0.8-0.1
					c-0.3,0-0.6,0-0.8,0.1c-0.2,0.1-0.4,0.2-0.6,0.4c-0.2,0.2-0.3,0.3-0.4,0.6C193.9,182.3,193.9,182.5,193.9,182.8z"/>
				<path class="st3" d="M199.4,177.5h0.9l0,3.6h0c0.2-0.3,0.5-0.5,0.9-0.6c0.3-0.1,0.7-0.2,1.1-0.2c0.4,0,0.8,0.1,1.2,0.2
					c0.4,0.1,0.6,0.3,0.9,0.5c0.2,0.2,0.4,0.5,0.6,0.8s0.2,0.6,0.2,1s-0.1,0.7-0.2,1s-0.3,0.6-0.6,0.8c-0.2,0.2-0.5,0.4-0.9,0.5
					c-0.3,0.1-0.7,0.2-1.1,0.2c-0.5,0-0.9-0.1-1.3-0.3s-0.6-0.4-0.8-0.7h0v0.8h-0.9L199.4,177.5z M200.3,182.8c0,0.2,0,0.5,0.1,0.7
					s0.2,0.4,0.4,0.6c0.2,0.2,0.4,0.3,0.6,0.4c0.2,0.1,0.5,0.1,0.8,0.1s0.6,0,0.8-0.1c0.2-0.1,0.4-0.2,0.6-0.4
					c0.2-0.2,0.3-0.3,0.4-0.6s0.1-0.4,0.1-0.7s0-0.5-0.1-0.7c-0.1-0.2-0.2-0.4-0.4-0.6s-0.4-0.3-0.6-0.4c-0.2-0.1-0.5-0.1-0.8-0.1
					s-0.6,0-0.8,0.1c-0.2,0.1-0.4,0.2-0.6,0.4s-0.3,0.3-0.4,0.6C200.4,182.3,200.3,182.5,200.3,182.8z"/>
				<path class="st3" d="M205.8,178.6c0-0.2,0.1-0.3,0.2-0.4c0.1-0.1,0.3-0.2,0.5-0.2c0.2,0,0.3,0.1,0.5,0.2s0.2,0.2,0.2,0.4
					c0,0.2-0.1,0.3-0.2,0.4s-0.3,0.2-0.5,0.2c-0.2,0-0.4-0.1-0.5-0.2C205.9,178.9,205.8,178.8,205.8,178.6z M206.1,180.4h0.9v4.7
					h-0.9V180.4z"/>
				<path class="st3" d="M208.3,177.5h0.9l0,7.6h-0.9L208.3,177.5z"/>
				<path class="st3" d="M210.3,178.6c0-0.2,0.1-0.3,0.2-0.4c0.1-0.1,0.3-0.2,0.5-0.2c0.2,0,0.3,0.1,0.5,0.2s0.2,0.2,0.2,0.4
					c0,0.2-0.1,0.3-0.2,0.4s-0.3,0.2-0.5,0.2c-0.2,0-0.4-0.1-0.5-0.2C210.3,178.9,210.3,178.8,210.3,178.6z M210.5,180.4h0.9v4.7
					h-0.9V180.4z"/>
				<path class="st3" d="M215.5,181.1l-1.6,0v2.4c0,0.2,0,0.3,0,0.4s0,0.2,0.1,0.3c0.1,0.1,0.1,0.2,0.2,0.2c0.1,0.1,0.3,0.1,0.5,0.1
					c0.1,0,0.3,0,0.4,0c0.1,0,0.3-0.1,0.4-0.1l0,0.7c-0.2,0.1-0.3,0.1-0.5,0.1c-0.2,0-0.4,0-0.5,0c-0.3,0-0.6,0-0.8-0.1
					c-0.2-0.1-0.3-0.2-0.5-0.3c-0.1-0.1-0.2-0.3-0.2-0.5c0-0.2-0.1-0.4-0.1-0.7v-2.6h-1.2v-0.7h1.2l0-1.3h0.9l0,1.3l1.6,0V181.1z"/>
				<path class="st3" d="M220.9,184.3c-0.3,0.4-0.7,0.6-1.1,0.8c-0.4,0.1-0.8,0.2-1.3,0.2c-0.4,0-0.8-0.1-1.1-0.2
					c-0.3-0.1-0.6-0.3-0.9-0.5c-0.2-0.2-0.4-0.5-0.5-0.8c-0.1-0.3-0.2-0.6-0.2-1c0-0.4,0.1-0.7,0.2-1c0.1-0.3,0.3-0.6,0.6-0.8
					c0.2-0.2,0.5-0.4,0.9-0.5c0.3-0.1,0.7-0.2,1.1-0.2c0.4,0,0.7,0.1,1,0.2c0.3,0.1,0.6,0.3,0.8,0.5c0.2,0.2,0.4,0.5,0.5,0.8
					s0.2,0.7,0.2,1v0.3l-4.4,0c0,0.2,0.1,0.4,0.2,0.6c0.1,0.2,0.2,0.3,0.4,0.5s0.3,0.2,0.5,0.3c0.2,0.1,0.4,0.1,0.7,0.1
					c0.4,0,0.7-0.1,1-0.2c0.3-0.1,0.5-0.3,0.7-0.5L220.9,184.3z M220.1,182.4c0-0.4-0.2-0.7-0.5-1c-0.3-0.2-0.7-0.4-1.2-0.4
					c-0.5,0-0.9,0.1-1.2,0.4c-0.3,0.2-0.5,0.6-0.6,1H220.1z M218.8,177.9h1.3l-1.7,1.4h-0.8L218.8,177.9z"/>
			</g>
			<g>
				<path class="st3" d="M114,159c0.1,0.1,0.2,0.3,0.3,0.4c0.1,0.1,0.3,0.2,0.4,0.2c0.2,0.1,0.3,0.1,0.5,0.1h0.4c0.1,0,0.1,0,0.2,0
					s0.1,0,0.1,0.1v0.5c0,0.1-0.1,0.1-0.2,0.1h-0.4c-0.2,0-0.5,0-0.7-0.1c-0.3-0.1-0.5-0.2-0.6-0.4c0,0.4-0.1,0.7-0.2,1
					c-0.1,0.3-0.3,0.6-0.5,0.8c-0.2,0.2-0.5,0.4-0.9,0.6c-0.4,0.1-0.8,0.2-1.4,0.2c-0.6,0-1.1-0.1-1.5-0.2c-0.4-0.1-0.7-0.4-1-0.7
					s-0.4-0.7-0.5-1.2c-0.1-0.5-0.1-1.1-0.1-1.7v-0.3h0.9v0.3c0,0.6,0,1,0.1,1.4c0.1,0.4,0.2,0.7,0.3,1c0.2,0.2,0.4,0.4,0.7,0.5
					c0.3,0.1,0.6,0.2,1.1,0.2c0.4,0,0.8-0.1,1-0.2c0.3-0.1,0.5-0.3,0.7-0.5c0.2-0.2,0.3-0.6,0.3-1c0.1-0.4,0.1-0.9,0.1-1.5V154h0.9
					v4.5C113.9,158.7,113.9,158.9,114,159z"/>
				<path class="st3" d="M115.4,160.3v-0.5c0-0.1,0-0.1,0.1-0.1s0.1,0,0.2,0h1.9c0.2,0,0.2,0,0.2,0.1v0.5c0,0.1,0,0.1-0.1,0.1
					c0,0-0.1,0-0.2,0h-1.9C115.4,160.4,115.4,160.4,115.4,160.3z"/>
				<path class="st3" d="M117.3,160.3v-0.5c0-0.1,0-0.1,0.1-0.1s0.1,0,0.2,0h1.9c0.2,0,0.2,0,0.2,0.1v0.5c0,0.1,0,0.1-0.1,0.1
					c0,0-0.1,0-0.2,0h-1.9C117.3,160.4,117.3,160.4,117.3,160.3z"/>
				<path class="st3" d="M120.3,157.2c0.1-0.3,0.2-0.5,0.4-0.7c0.2-0.2,0.4-0.3,0.7-0.5c0.3-0.1,0.6-0.2,1-0.2
					c0.8,0,1.4,0.2,1.8,0.6c0.4,0.4,0.6,1,0.6,1.7c0,0.1,0,0.3,0,0.4c0,0.2-0.1,0.3-0.1,0.4s-0.1,0.3-0.2,0.4
					c-0.1,0.1-0.1,0.2-0.2,0.3v0h1.4c0.1,0,0.1,0,0.2,0s0.1,0,0.1,0.1v0.5c0,0.1-0.1,0.1-0.2,0.1h-6.2c-0.2,0-0.2,0-0.2-0.1v-0.5
					c0-0.1,0-0.1,0.1-0.1s0.1,0,0.2,0h1.3v0c-0.1-0.1-0.1-0.1-0.2-0.3c-0.1-0.1-0.1-0.2-0.2-0.4s-0.1-0.3-0.1-0.4c0-0.2,0-0.3,0-0.4
					C120.2,157.8,120.2,157.4,120.3,157.2z M121.2,158.8c0,0.2,0.1,0.4,0.2,0.5c0.1,0.1,0.2,0.2,0.4,0.3s0.4,0.1,0.6,0.1
					c0.3,0,0.5,0,0.6-0.1c0.2-0.1,0.3-0.2,0.4-0.3c0.1-0.1,0.2-0.3,0.2-0.5c0-0.2,0.1-0.4,0.1-0.6s0-0.5-0.1-0.6
					c0-0.2-0.1-0.3-0.2-0.5c-0.1-0.1-0.2-0.2-0.4-0.3c-0.2-0.1-0.4-0.1-0.6-0.1c-0.3,0-0.5,0-0.6,0.1s-0.3,0.2-0.4,0.3
					c-0.1,0.1-0.2,0.3-0.2,0.5c0,0.2-0.1,0.4-0.1,0.6S121.2,158.6,121.2,158.8z M122.2,154v1h-0.9v-1H122.2z M123.7,154v1h-0.9v-1
					H123.7z"/>
				<path class="st3" d="M128.9,160.3c-0.2,0-0.3-0.1-0.5-0.2c-0.1-0.1-0.3-0.2-0.4-0.2c-0.1-0.1-0.2-0.2-0.2-0.3
					c-0.2,0.3-0.4,0.5-0.7,0.6c-0.3,0.1-0.6,0.2-0.9,0.2h-0.6c-0.2,0-0.2,0-0.2-0.1v-0.5c0-0.1,0-0.1,0.1-0.1s0.1,0,0.2,0h0.6
					c0.3,0,0.5-0.1,0.7-0.2c0.2-0.1,0.3-0.4,0.3-0.7v-2.4h0.9v2c0,0.2,0,0.3,0.1,0.5c0.1,0.1,0.2,0.3,0.3,0.4
					c0.1,0.1,0.3,0.2,0.4,0.2c0.2,0.1,0.3,0.1,0.5,0.1h0.4c0.1,0,0.1,0,0.2,0c0,0,0.1,0,0.1,0.1v0.5c0,0.1-0.1,0.1-0.2,0.1h-0.4
					C129.3,160.4,129.1,160.4,128.9,160.3z M128.1,154v1h-0.9v-1H128.1z"/>
				<path class="st3" d="M133.1,160.3c-0.2,0-0.3-0.1-0.5-0.2c-0.1-0.1-0.3-0.2-0.4-0.2s-0.2-0.2-0.2-0.3c-0.2,0.3-0.4,0.5-0.7,0.6
					c-0.3,0.1-0.6,0.2-0.9,0.2h-0.6c-0.2,0-0.2,0-0.2-0.1v-0.5c0-0.1,0-0.1,0.1-0.1s0.1,0,0.2,0h0.6c0.3,0,0.5-0.1,0.7-0.2
					c0.2-0.1,0.3-0.4,0.3-0.7v-2.4h0.9v2c0,0.2,0,0.3,0.1,0.5c0.1,0.1,0.2,0.3,0.3,0.4c0.1,0.1,0.3,0.2,0.4,0.2
					c0.2,0.1,0.3,0.1,0.5,0.1h0.4c0.1,0,0.1,0,0.2,0c0,0,0.1,0,0.1,0.1v0.5c0,0.1-0.1,0.1-0.2,0.1h-0.4
					C133.4,160.4,133.3,160.4,133.1,160.3z M131.6,154v1h-0.9v-1H131.6z M133,154v1h-0.9v-1H133z"/>
				<path class="st3" d="M137,160.3c-0.2,0-0.3-0.1-0.5-0.2c-0.1-0.1-0.3-0.2-0.4-0.2s-0.2-0.2-0.2-0.3c-0.2,0.3-0.4,0.5-0.7,0.6
					c-0.3,0.1-0.6,0.2-0.9,0.2H134c-0.2,0-0.2,0-0.2-0.1v-0.5c0-0.1,0-0.1,0.1-0.1s0.1,0,0.2,0h0.3c0.3,0,0.5-0.1,0.7-0.2
					c0.2-0.1,0.3-0.4,0.3-0.7V154h0.9v4.4c0,0.2,0,0.3,0.1,0.5c0.1,0.1,0.2,0.3,0.3,0.4c0.1,0.1,0.3,0.2,0.4,0.2
					c0.2,0.1,0.3,0.1,0.5,0.1h0.2c0.1,0,0.1,0,0.2,0s0.1,0,0.1,0.1v0.5c0,0.1-0.1,0.1-0.2,0.1h-0.2
					C137.3,160.4,137.1,160.4,137,160.3z"/>
				<path class="st3" d="M139.5,154h0.9v6.4h-2.8c-0.2,0-0.2,0-0.2-0.1v-0.5c0-0.1,0-0.1,0.1-0.1s0.1,0,0.2,0h1.9V154z"/>
				<path class="st3" d="M148.2,160.1c-0.3-0.2-0.5-0.4-0.6-0.7c-0.1,0.2-0.3,0.4-0.5,0.5s-0.5,0.2-0.9,0.2c-0.3,0-0.5,0-0.8-0.1
					c-0.2-0.1-0.5-0.2-0.6-0.4c-0.2-0.2-0.3-0.4-0.4-0.6c-0.1-0.2-0.2-0.5-0.2-0.9c0-0.3,0-0.6,0.1-0.8c0.1-0.3,0.2-0.5,0.3-0.7
					c0.1-0.2,0.4-0.4,0.6-0.5c0.3-0.1,0.6-0.2,1-0.2h2v2.6c0,0.2,0,0.4,0.1,0.5s0.1,0.3,0.2,0.3c0.1,0.1,0.2,0.1,0.3,0.2
					c0.1,0,0.3,0.1,0.4,0.1h0.3c0.1,0,0.1,0,0.2,0c0,0,0.1,0,0.1,0.1v0.5c0,0.1-0.1,0.1-0.2,0.1h-0.3
					C148.8,160.4,148.5,160.3,148.2,160.1z M147,159.1c0.2-0.2,0.3-0.5,0.3-0.9v-1.5h-1.1c-0.2,0-0.4,0-0.5,0.1
					c-0.1,0.1-0.2,0.2-0.3,0.3s-0.1,0.3-0.2,0.4c0,0.2-0.1,0.4-0.1,0.6c0,0.4,0.1,0.7,0.3,0.9s0.4,0.3,0.8,0.3
					C146.5,159.4,146.8,159.3,147,159.1z M146.2,154v1h-0.9v-1H146.2z M147.7,154v1h-0.9v-1H147.7z"/>
				<path class="st3" d="M149.4,160.3v-0.5c0-0.1,0-0.1,0.1-0.1c0,0,0.1,0,0.2,0h1.9c0.2,0,0.2,0,0.2,0.1v0.5c0,0.1,0,0.1-0.1,0.1
					c0,0-0.1,0-0.2,0h-1.9C149.5,160.4,149.4,160.4,149.4,160.3z"/>
				<path class="st3" d="M151.3,160.3v-0.5c0-0.1,0-0.1,0.1-0.1c0,0,0.1,0,0.2,0h1.2c-0.1-0.1-0.2-0.2-0.3-0.4
					c-0.1-0.2-0.1-0.4-0.1-0.7c0-0.5,0.1-0.8,0.4-1.1s0.6-0.4,1-0.5c0.1-0.2,0.2-0.3,0.3-0.5s0.3-0.3,0.5-0.4s0.4-0.2,0.6-0.2
					c0.2-0.1,0.4-0.1,0.7-0.1c0.5,0,0.8,0,1.1,0.1c0.3,0.1,0.5,0.2,0.7,0.4c0.2,0.2,0.3,0.4,0.4,0.7s0.1,0.6,0.1,1v0.7
					c0,0.3,0.1,0.5,0.3,0.7c0.2,0.2,0.5,0.2,0.8,0.2h0.6c0.1,0,0.1,0,0.2,0c0,0,0.1,0,0.1,0.1v0.5c0,0.1-0.1,0.1-0.2,0.1h-0.6
					c-0.1,0-0.2,0-0.3,0s-0.2-0.1-0.3-0.1c-0.1,0-0.2-0.1-0.3-0.2c-0.1-0.1-0.1-0.2-0.2-0.2h0c0,0.1,0,0.2-0.1,0.3
					c0,0.1-0.1,0.2-0.2,0.3h-6.2C151.4,160.4,151.3,160.4,151.3,160.3z M154.2,159.6c0.1-0.1,0.2-0.2,0.2-0.3
					c0.1-0.1,0.1-0.2,0.1-0.4c0-0.1,0-0.3,0-0.4c0-0.3-0.1-0.5-0.2-0.7c-0.1-0.2-0.3-0.3-0.6-0.3c-0.3,0-0.5,0.1-0.6,0.3
					c-0.1,0.2-0.2,0.4-0.2,0.7c0,0.1,0,0.3,0,0.4c0,0.1,0.1,0.3,0.1,0.4c0.1,0.1,0.1,0.2,0.2,0.3s0.2,0.1,0.4,0.1
					C154,159.7,154.1,159.7,154.2,159.6z M155.3,159.3c-0.1,0.2-0.2,0.3-0.3,0.4h2.1v-1.6c0-0.5-0.1-0.9-0.3-1.2
					c-0.2-0.2-0.6-0.4-1.1-0.4c-0.3,0-0.5,0-0.7,0.1c-0.2,0.1-0.3,0.2-0.4,0.3c0.3,0.1,0.5,0.3,0.7,0.5s0.2,0.6,0.2,1
					C155.5,158.9,155.4,159.1,155.3,159.3z"/>
				<path class="st3" d="M164.6,158.1c0-0.5-0.1-0.9-0.4-1.1s-0.7-0.4-1.2-0.4c-0.3,0-0.5,0-0.7,0.1c-0.2,0.1-0.4,0.2-0.5,0.3
					c-0.1,0.1-0.2,0.3-0.3,0.4c-0.1,0.1-0.1,0.3-0.1,0.4h-0.9c0-0.1,0-0.3,0.1-0.5c0.1-0.2,0.2-0.4,0.4-0.7c0.2-0.2,0.4-0.4,0.8-0.5
					c0.3-0.2,0.7-0.2,1.3-0.2c0.5,0,0.9,0.1,1.2,0.2c0.3,0.1,0.6,0.3,0.8,0.5c0.2,0.2,0.4,0.4,0.5,0.7c0.1,0.3,0.2,0.6,0.2,1v0.6
					c0,0.2,0,0.3,0.1,0.4c0.1,0.1,0.1,0.2,0.2,0.3c0.1,0.1,0.2,0.1,0.3,0.2c0.1,0,0.3,0.1,0.4,0.1h0.4c0.1,0,0.1,0,0.2,0
					c0,0,0.1,0,0.1,0.1v0.5c0,0.1-0.1,0.1-0.2,0.1h-0.4c-0.2,0-0.4-0.1-0.6-0.2c-0.2-0.1-0.3-0.2-0.4-0.4h0c0,0.1,0,0.2-0.1,0.3
					c0,0.1-0.1,0.2-0.2,0.3h-5.4c-0.2,0-0.2,0-0.2-0.1v-0.5c0-0.1,0-0.1,0.1-0.1c0,0,0.1,0,0.2,0h4.8V158.1z M163.2,161.2v1h-0.9v-1
					H163.2z"/>
				<path class="st3" d="M168.9,154h0.9v6.4H167c-0.2,0-0.2,0-0.2-0.1v-0.5c0-0.1,0-0.1,0.1-0.1c0,0,0.1,0,0.2,0h1.9V154z"/>
				<path class="st3" d="M171.3,154h0.9v6.4h-0.9V154z"/>
				<path class="st3" d="M176.6,159.7V154h0.9v4.4h0c0.1-0.3,0.3-0.6,0.4-0.9c0.2-0.3,0.4-0.5,0.6-0.8c0.2-0.2,0.5-0.4,0.9-0.6
					c0.3-0.1,0.7-0.2,1.2-0.2c0.9,0,1.6,0.2,1.9,0.5s0.6,0.9,0.6,1.6v2.2h-7.5v-0.7H176.6z M180,156.9c-0.2,0.1-0.4,0.3-0.6,0.4
					c-0.2,0.2-0.4,0.4-0.5,0.6c-0.2,0.2-0.3,0.4-0.4,0.7c-0.1,0.2-0.2,0.4-0.3,0.6c-0.1,0.2-0.1,0.3-0.2,0.5h4.5v-1.5
					c0-0.5-0.1-0.8-0.4-1.1c-0.3-0.2-0.7-0.4-1.3-0.4C180.4,156.7,180.2,156.8,180,156.9z"/>
				<path class="st3" d="M186.7,159.7c0,0,0.1,0,0.1,0.1v0.5c0,0.1-0.1,0.1-0.2,0.1h-1.8V154h0.9v5.6h0.9
					C186.6,159.7,186.7,159.7,186.7,159.7z"/>
				<path class="st3" d="M186.3,160.3v-0.5c0-0.1,0-0.1,0.1-0.1c0,0,0.1,0,0.2,0h1.9c0.2,0,0.2,0,0.2,0.1v0.5c0,0.1,0,0.1-0.1,0.1
					c0,0-0.1,0-0.2,0h-1.9C186.4,160.4,186.3,160.4,186.3,160.3z"/>
				<path class="st3" d="M188.2,160.3v-0.5c0-0.1,0-0.1,0.1-0.1c0,0,0.1,0,0.2,0h1.9c0.2,0,0.2,0,0.2,0.1v0.5c0,0.1,0,0.1-0.1,0.1
					c0,0-0.1,0-0.2,0h-1.9C188.3,160.4,188.2,160.4,188.2,160.3z"/>
				<path class="st3" d="M190.1,160.3v-0.5c0-0.1,0-0.1,0.1-0.1c0,0,0.1,0,0.2,0h1.9c0.2,0,0.2,0,0.2,0.1v0.5c0,0.1,0,0.1-0.1,0.1
					c0,0-0.1,0-0.2,0h-1.9C190.2,160.4,190.1,160.4,190.1,160.3z"/>
				<path class="st3" d="M193.6,156.4h0.9v4h-2.3c-0.2,0-0.2,0-0.2-0.1v-0.5c0-0.1,0-0.1,0.1-0.1c0,0,0.1,0,0.2,0h1.3V156.4z
					 M194.5,161.2v1h-0.9v-1H194.5z"/>
				<path class="st3" d="M199.3,159.7c0,0,0.1,0,0.1,0.1v0.5c0,0.1-0.1,0.1-0.2,0.1h-0.4c-0.1,0-0.2,0-0.3,0c-0.1,0-0.2-0.1-0.3-0.1
					c-0.1-0.1-0.2-0.1-0.2-0.2s-0.1-0.2-0.1-0.3v0.7c0,0.3,0,0.6,0,0.9c0,0.3-0.1,0.5-0.2,0.7c-0.1,0.2-0.2,0.3-0.4,0.4
					c-0.2,0.1-0.4,0.1-0.8,0.1c-0.2,0-0.3,0-0.4,0c-0.1,0-0.2,0-0.3-0.1c-0.1,0-0.1-0.1-0.2-0.1v-0.7c0.2,0.1,0.5,0.2,0.7,0.2
					c0.2,0,0.3,0,0.4-0.1c0.1,0,0.1-0.1,0.2-0.2c0-0.1,0.1-0.2,0.1-0.4c0-0.2,0-0.4,0-0.7v-4h0.9v2.3c0,0.3,0.1,0.6,0.3,0.7
					s0.4,0.2,0.7,0.2h0.4C199.2,159.7,199.2,159.7,199.3,159.7z"/>
				<path class="st3" d="M201,154h0.9v6.4h-2.8c-0.2,0-0.2,0-0.2-0.1v-0.5c0-0.1,0-0.1,0.1-0.1c0,0,0.1,0,0.2,0h1.9V154z"/>
				<path class="st3" d="M203.3,154h0.9v6.4h-0.9V154z"/>
				<path class="st3" d="M212,160.1c-0.3-0.2-0.5-0.4-0.6-0.7c-0.1,0.2-0.3,0.4-0.5,0.5s-0.5,0.2-0.9,0.2c-0.3,0-0.5,0-0.8-0.1
					c-0.2-0.1-0.5-0.2-0.6-0.4c-0.2-0.2-0.3-0.4-0.4-0.6c-0.1-0.2-0.2-0.5-0.2-0.9c0-0.3,0-0.6,0.1-0.8c0.1-0.3,0.2-0.5,0.3-0.7
					c0.1-0.2,0.4-0.4,0.6-0.5c0.3-0.1,0.6-0.2,1-0.2h2v2.6c0,0.2,0,0.4,0.1,0.5s0.1,0.3,0.2,0.3c0.1,0.1,0.2,0.1,0.3,0.2
					c0.1,0,0.3,0.1,0.4,0.1h0.3c0.1,0,0.1,0,0.2,0c0,0,0.1,0,0.1,0.1v0.5c0,0.1-0.1,0.1-0.2,0.1h-0.3
					C212.7,160.4,212.3,160.3,212,160.1z M210.8,159.1c0.2-0.2,0.3-0.5,0.3-0.9v-1.5H210c-0.2,0-0.4,0-0.5,0.1
					c-0.1,0.1-0.2,0.2-0.3,0.3s-0.1,0.3-0.2,0.4c0,0.2-0.1,0.4-0.1,0.6c0,0.4,0.1,0.7,0.3,0.9s0.4,0.3,0.8,0.3
					C210.4,159.4,210.6,159.3,210.8,159.1z M210.1,154v1h-0.9v-1H210.1z M211.5,154v1h-0.9v-1H211.5z"/>
				<path class="st3" d="M218.2,158.2c0-0.6-0.1-1-0.4-1.2c-0.2-0.2-0.6-0.3-1-0.3h-2.6V156l2.5-2h1.3l-2.4,2h1.3
					c0.5,0,0.9,0.1,1.2,0.2c0.3,0.1,0.6,0.3,0.7,0.5c0.2,0.2,0.3,0.4,0.4,0.7c0.1,0.3,0.1,0.6,0.1,0.9v2.1h-5.7
					c-0.2,0-0.2,0-0.2-0.1v-0.5c0-0.1,0-0.1,0.1-0.1c0,0,0.1,0,0.2,0h4.7V158.2z"/>
				<path class="st3" d="M223.9,159.7c0,0,0.1,0,0.1,0.1v0.5c0,0.1-0.1,0.1-0.2,0.1h-0.4c-0.1,0-0.2,0-0.3,0c-0.1,0-0.2-0.1-0.3-0.1
					c-0.1-0.1-0.2-0.1-0.2-0.2s-0.1-0.2-0.1-0.3v0.7c0,0.3,0,0.6,0,0.9c0,0.3-0.1,0.5-0.2,0.7c-0.1,0.2-0.2,0.3-0.4,0.4
					c-0.2,0.1-0.4,0.1-0.8,0.1c-0.2,0-0.3,0-0.4,0c-0.1,0-0.2,0-0.3-0.1c-0.1,0-0.1-0.1-0.2-0.1v-0.7c0.2,0.1,0.5,0.2,0.7,0.2
					c0.2,0,0.3,0,0.4-0.1c0.1,0,0.1-0.1,0.2-0.2c0-0.1,0.1-0.2,0.1-0.4c0-0.2,0-0.4,0-0.7v-4h0.9v2.3c0,0.3,0.1,0.6,0.3,0.7
					s0.4,0.2,0.7,0.2h0.4C223.8,159.7,223.8,159.7,223.9,159.7z"/>
				<path class="st3" d="M224.7,159.6c0.1,0,0.2-0.1,0.3-0.2s0.1-0.2,0.2-0.3c0.1-0.1,0.1-0.3,0.1-0.4v-2h0.9v2
					c0,0.3,0.1,0.5,0.2,0.7c0.2,0.1,0.4,0.2,0.8,0.2c0.4,0,0.6-0.1,0.8-0.2s0.2-0.4,0.2-0.7v-2.2h0.9v2.2c0,0.3,0.1,0.5,0.3,0.7
					c0.2,0.1,0.4,0.2,0.7,0.2h1.1v-3.3h1v4h-2.1c-0.1,0-0.2,0-0.3,0c-0.1,0-0.2-0.1-0.4-0.1s-0.2-0.1-0.3-0.2
					c-0.1-0.1-0.2-0.2-0.2-0.3h0c-0.2,0.2-0.4,0.4-0.6,0.6s-0.5,0.2-0.9,0.2c-0.3,0-0.6-0.1-0.8-0.2c-0.2-0.1-0.4-0.3-0.5-0.5h0
					c-0.2,0.4-0.6,0.7-1.3,0.7h-1.1c-0.2,0-0.2,0-0.2-0.1v-0.5c0-0.1,0-0.1,0.1-0.1c0,0,0.1,0,0.2,0h0.7
					C224.5,159.7,224.6,159.7,224.7,159.6z M228.5,154v1h-0.9v-1H228.5z M229.2,152.7v1h-0.9v-1H229.2z M229.9,154v1H229v-1H229.9z"
					/>
			</g>
		</g>
	</g>
</g>
</svg>
